<?xml version="1.0" encoding="UTF-8"?>
<svg id="Layer_2" data-name="Layer 2" xmlns="http://www.w3.org/2000/svg" xmlns:xlink="http://www.w3.org/1999/xlink" viewBox="0 0 686 362">
  <defs>
    <style>
      .cls-1 {
        fill: #f7d4c4;
      }

      .cls-2 {
        filter: url(#drop-shadow-1);
      }

      .cls-3 {
        fill: #e0e2cd;
      }

      .cls-4 {
        fill: #6d605f;
      }

      .cls-5 {
        fill: #f9c893;
      }

      .cls-6 {
        fill: none;
        stroke: #6d605f;
        stroke-linecap: round;
        stroke-linejoin: round;
        stroke-width: 3.45px;
      }
    </style>
    <filter id="drop-shadow-1" x="149.81" y="19.7" width="488" height="336" filterUnits="userSpaceOnUse">
      <feOffset dx="7.81" dy="7.81"/>
      <feGaussianBlur result="blur" stdDeviation="5.58"/>
      <feFlood flood-color="#fff" flood-opacity=".73"/>
      <feComposite in2="blur" operator="in"/>
      <feComposite in="SourceGraphic"/>
    </filter>
  </defs>
  <g id="carrot">
    <g id="carrot-2" data-name="carrot">
      <rect class="cls-1" width="686" height="362"/>
      <g class="cls-2">
        <path class="cls-3" d="M440.94,158.21l118.95.4c46.63,11.09,50.87-28.79,4.24-39.87,88.23-60.28,45.47-122.88-42.77-62.6-4.36-23.39-36.72-39.87-57.51-14.67l-42.37,88.28,19.45,28.47Z"/>
        <path class="cls-5" d="M357.15,116.65c64.57-25.53,118.05,59.34,67.88,109.01-6.71,6.65-14.81,11.63-23.49,15.37l-135.69,58.59c-133.71,59.55-133.2,27.97-43.73-64.01l103.63-99.44c6.76-6.28,22.8-16.12,31.4-19.52Z"/>
        <g>
          <ellipse class="cls-4" cx="377.59" cy="235.71" rx="9.05" ry="10.29" transform="translate(-67.15 254.09) rotate(-34.34)"/>
          <ellipse class="cls-4" cx="324.91" cy="158.6" rx="9.05" ry="10.29" transform="translate(-32.84 210.94) rotate(-34.34)"/>
          <path class="cls-6" d="M341.39,192.93c-.89,7.37.97,12.71,9.15,13.4"/>
        </g>
      </g>
    </g>
  </g>
</svg>