<?xml version="1.0" encoding="UTF-8"?>
<svg xmlns="http://www.w3.org/2000/svg" xmlns:xlink="http://www.w3.org/1999/xlink" viewBox="0 0 2222.42 2483.58">
  <defs>
    <style>
      .cls-1 {
        letter-spacing: 0em;
      }

      .cls-1, .cls-2 {
        font-size: 60px;
      }

      .cls-1, .cls-2, .cls-3 {
        fill: #3d2b29;
        font-family: Poppins-Medium, Poppins;
        font-weight: 500;
      }

      .cls-4 {
        fill: url(#linear-gradient-2);
      }

      .cls-5 {
        fill: #ef7f65;
      }

      .cls-6 {
        fill: #d2ded4;
      }

      .cls-7 {
        stroke: #fbf1e6;
        stroke-width: 4px;
      }

      .cls-7, .cls-8, .cls-9 {
        stroke-miterlimit: 10;
      }

      .cls-7, .cls-9 {
        fill: none;
      }

      .cls-8 {
        fill: #e2c6bf;
        stroke: #f4997d;
        stroke-width: 21.54px;
      }

      .cls-10 {
        fill: url(#linear-gradient-4);
      }

      .cls-11 {
        fill: url(#linear-gradient-3);
      }

      .cls-12 {
        fill: url(#linear-gradient-5);
      }

      .cls-13 {
        fill: #fddcb4;
      }

      .cls-14 {
        fill: #e2684b;
      }

      .cls-3 {
        font-size: 21px;
      }

      .cls-15 {
        fill: url(#linear-gradient-6);
      }

      .cls-16 {
        fill: #fbf1e6;
      }

      .cls-9 {
        stroke: #6d605f;
        stroke-linecap: round;
        stroke-width: 5.52px;
      }

      .cls-17 {
        fill: #6d605f;
      }

      .cls-18 {
        fill: url(#linear-gradient);
      }

      .cls-19 {
        fill: #f4997d;
      }
    </style>
    <linearGradient id="linear-gradient" x1="650.32" y1="987.58" x2="716.41" y2="1102.05" gradientTransform="translate(2380.37) rotate(-180) scale(1 -1)" gradientUnits="userSpaceOnUse">
      <stop offset="0" stop-color="#fbefe3"/>
      <stop offset=".54" stop-color="#f9ede1"/>
      <stop offset=".73" stop-color="#f5e6db"/>
      <stop offset=".87" stop-color="#eedad1"/>
      <stop offset=".98" stop-color="#e4c9c2"/>
      <stop offset="1" stop-color="#e2c6bf"/>
    </linearGradient>
    <linearGradient id="linear-gradient-2" x1="703.42" y1="805.69" x2="703.42" y2="1028.54" xlink:href="#linear-gradient"/>
    <linearGradient id="linear-gradient-3" x1="1342.62" y1="921.91" x2="1472.89" y2="921.91" gradientTransform="translate(1443.01 -715.26) rotate(47.76)" gradientUnits="userSpaceOnUse">
      <stop offset="0" stop-color="#f4997d"/>
      <stop offset=".34" stop-color="#f47a7d"/>
      <stop offset=".6" stop-color="#f4987d"/>
      <stop offset="1" stop-color="#f47a7d"/>
    </linearGradient>
    <linearGradient id="linear-gradient-4" x1="1049.3" y1="1266.99" x2="1148.86" y2="1266.99" gradientTransform="translate(1191.15 -715.26) rotate(132.24) scale(1 -1)" xlink:href="#linear-gradient-3"/>
    <linearGradient id="linear-gradient-5" x1="716.68" y1="1823.4" x2="782.77" y2="1937.87" gradientTransform="translate(2334.22 -22.92) rotate(178.01) scale(1 -1)" xlink:href="#linear-gradient"/>
    <linearGradient id="linear-gradient-6" x1="769.77" y1="1641.52" x2="769.77" y2="1864.36" gradientTransform="translate(2334.22 -22.92) rotate(178.01) scale(1 -1)" xlink:href="#linear-gradient"/>
  </defs>
  <g id="Layer_4" data-name="Layer 4">
    <image width="736" height="1104" transform="translate(0 1606.17) scale(.23)" xlink:href="../../../../OneDrive/Pictures/image 1.png"/>
  </g>
  <g id="banner">
    <rect class="cls-6" x="443.53" y="565.98" width="1778.89" height="630.14"/>
    <g>
      <g>
        <path class="cls-18" d="M1659.59,1070.81l2.04-30.8c-.6-7.13-1.01-30.18,16.07-48.47l70.47,6.5-19.27,51.7-.83-.09-4.22,29.65v8.66s-20.18,12.34-28.28,8.83c-20.11-8.72,4.59-8.95,7.71-21.84l-1.67-29.18c-.96-2.7-3.3-4.7-6.11-5.15-.41-.07-.83-.09-1.24-.09-5.91,1.47-13.52,7.89-14.41,30.94v14.24s-20.18,12.34-28.28,8.83c-21.05-9.13,7.03-8.94,8.01-23.73Z"/>
        <g>
          <path class="cls-4" d="M1570.18,1028.54l48.35-222.85s53.43,101.93,165.21,115.79c-5.39,35.55-11.84,71.1-18.56,106.65-23.04-2.47-148-14.88-195,.4Z"/>
          <path class="cls-19" d="M1789.95,922.23c67.89,18.22,46.79,124.53-21.1,106.31,0,0-1.29-.15-3.68-.4,6.72-35.55,13.17-71.1,18.56-106.65,2.07.26,4.11.55,6.22.74Z"/>
        </g>
        <path class="cls-8" d="M1527.69,873.17c-22.39,72.26-13.58,159.72,28.55,166.68,42.13,6.97,78.63-73,80.69-148.62,1.51-55.11-16.59-93.06-40.08-96.94-23.49-3.89-52.84,26.21-69.16,78.88Z"/>
        <circle class="cls-17" cx="1636.87" cy="903.56" r="9"/>
        <circle class="cls-17" cx="1520.87" cy="882.56" r="9"/>
        <path class="cls-9" d="M1576.38,892.14c-5.48,3.61-9.68,2.48-12.61-3.39"/>
      </g>
      <g>
        <path class="cls-17" d="M1609.9,976.92c-2.62-2.88-3.46-7.05-1.87-9.33l72.09-103.54c2.6-3.74,7.51-3.77,10.92-.01s3.96,9.79,1.26,13.43l-74.69,100.68c-1.65,2.22-5.09,1.66-7.71-1.22Z"/>
        <path class="cls-11" d="M1693.86,870.42c11.69,40.18,32.76,69.14,71.06,85.52,1.98.85,3.34,2.89,3.18,4.95-2.24,30.14-30.54,47.45-57.52,52.23-13.13-30.25-36.03-54.99-65.44-74.24l48.71-68.45Z"/>
      </g>
      <g>
        <path class="cls-17" d="M1513.91,976.92c2.62-2.88,1.98-7.21-1.41-9.66l-112.65-81.25c-2.98-2.15-7.36-1.7-9.8.98s-2.02,6.61.94,8.78l112.07,81.9c3.37,2.47,8.24,2.14,10.86-.75Z"/>
        <path class="cls-10" d="M1388.52,891.32c-4.49,27.89-19.5,49.5-50.5,61.53-1.54.6-2.48,2.09-2.2,3.62,4.31,23.58,32.11,40.61,60.68,47.88,8.15-27.25,27.7-48.24,56.42-64.71l-64.4-48.32Z"/>
      </g>
    </g>
    <text class="cls-2" transform="translate(743.08 891.13)"><tspan x="0" y="0">Track Your Progress</tspan></text>
    <text class="cls-3" transform="translate(743.08 949.6)"><tspan x="0" y="0">Stay motivated with daily &amp; weekly accuracy </tspan><tspan x="0" y="25.2">reports, real-time feedback, and consistency </tspan><tspan x="0" y="50.4">tracking to keep you on track! </tspan></text>
    <path class="cls-16" d="M1765.87,802.8l.29,19.78,19.74,1.3c4.02.27,4.76,5.87.95,7.17l-18.72,6.39,4.86,19.17c.99,3.91-4.11,6.34-6.53,3.12l-11.86-15.83-16.73,10.54c-3.41,2.15-7.3-1.95-4.98-5.24l11.39-16.17-15.2-12.66c-3.1-2.58-.4-7.55,3.45-6.36l18.9,5.84,7.34-18.37c1.5-3.74,7.05-2.72,7.11,1.31Z"/>
    <path class="cls-16" d="M1421.4,813.13l10.31,16.88,17.65-8.92c3.6-1.82,7.09,2.63,4.46,5.69l-12.86,15.02,13.94,14.03c2.84,2.86-.31,7.55-4.03,6l-18.26-7.59-9.04,17.59c-1.84,3.59-7.28,2.04-6.96-1.98l1.58-19.72-19.52-3.16c-3.98-.64-4.19-6.29-.27-7.23l19.24-4.59-3.03-19.55c-.62-3.98,4.69-5.93,6.79-2.49Z"/>
    <path class="cls-16" d="M1485.52,836.94l3.61,5.51,6.53-.81c1.41-.17,2.09,1.68.9,2.46l-5.51,3.61.81,6.53c.17,1.41-1.68,2.09-2.46.9l-3.61-5.51-6.53.81c-1.41.17-2.09-1.68-.9-2.46l5.51-3.61-.81-6.53c-.17-1.41,1.68-2.09,2.46-.9Z"/>
    <path class="cls-16" d="M1806.12,879.65l3.61,5.51,6.53-.81c1.41-.17,2.09,1.68.9,2.46l-5.51,3.61.81,6.53c.17,1.41-1.68,2.09-2.46.9l-3.61-5.51-6.53.81c-1.41.17-2.09-1.68-.9-2.46l5.51-3.61-.81-6.53c-.17-1.41,1.68-2.09,2.46-.9Z"/>
  </g>
  <g id="learn">
    <g>
      <rect class="cls-13" x="371.19" y="1444.35" width="1778.89" height="630.14"/>
      <text class="cls-1" transform="translate(675.61 1713.91)"><tspan x="0" y="0">What would you </tspan><tspan x="0" y="72">like to learn?</tspan></text>
      <g>
        <g>
          <path class="cls-12" d="M1613.81,1909.91l.97-30.85c-.85-7.1-2.06-30.13,14.38-49l70.65,4.05-17.47,52.33-.83-.06-3.18,29.78.3,8.65s-19.74,13.04-27.96,9.81c-20.4-8.02,4.28-9.1,6.94-22.09l-2.68-29.11c-1.06-2.66-3.46-4.58-6.28-4.93-.42-.05-.83-.07-1.24-.05-5.86,1.67-13.24,8.35-13.32,31.42l.49,14.23s-19.74,13.04-27.96,9.81c-21.35-8.39,6.71-9.18,7.18-23.99Z"/>
          <g>
            <path class="cls-15" d="M1522.98,1870.77l40.58-224.39s56.94,100.01,169.13,109.98c-4.15,35.72-9.36,71.47-14.84,107.23-23.11-1.66-148.43-9.73-194.86,7.18Z"/>
            <path class="cls-19" d="M1738.93,1756.89c68.48,15.85,51.09,122.83-17.39,106.98,0,0-1.3-.1-3.69-.28,5.48-35.76,10.69-71.52,14.84-107.23,2.07.18,4.13.41,6.24.53Z"/>
          </g>
          <path class="cls-8" d="M1475.12,1716.97c-19.86,72.99-8.02,160.09,34.32,165.59,42.35,5.5,76.04-75.69,75.48-151.33-.41-55.13-19.81-92.43-43.43-95.49-23.61-3.07-51.9,28.03-66.38,81.23Z"/>
          <circle class="cls-17" cx="1585.28" cy="1743.55" r="9"/>
          <circle class="cls-17" cx="1468.62" cy="1726.59" r="9"/>
          <path class="cls-9" d="M1524.44,1734.24c-5.35,3.8-9.59,2.82-12.72-2.95"/>
        </g>
        <g>
          <g>
            <path class="cls-5" d="M1425.13,1766.6l-57.02,60.37c19.4,14.43,29.92,35.03,32.8,60.93l2.66,1.96,50-70.17-28.44-53.09Z"/>
            <polygon class="cls-14" points="1456.77 1825.67 1453.57 1819.69 1403.56 1889.86 1413.85 1897.43 1464.21 1827.1 1456.77 1825.67"/>
            <path class="cls-5" d="M1481.91,1910.71l40.67-72.4-58.38-11.21-50.36,70.33.13.1c26.38-4.18,49.26-.33,67.93,13.18Z"/>
          </g>
          <path class="cls-16" d="M1425.13,1766.6s46.96,20.61,31.64,59.07l-31.64-59.07Z"/>
          <path class="cls-16" d="M1522.59,1838.31s-33.64-38.7-65.81-12.64l65.81,12.64Z"/>
        </g>
      </g>
      <path class="cls-7" d="M1381.28,1684.08c-46.57-2.58-.32,70.14-.32,29.28,0-20.77-58.3,34.48-4.52,34.48"/>
      <path class="cls-16" d="M1821.52,1787.04l-.4-22.47c-.05-2.91-3.05-4.82-5.71-3.65l-20.55,9.09c-2.17.96-3.96-1.93-2.13-3.45l17.32-14.32c2.24-1.85,1.87-5.39-.71-6.74l-19.92-10.4c-2.11-1.1-.96-4.3,1.37-3.82l22,4.61c2.85.6,5.38-1.9,4.82-4.75l-4.29-22.06c-.45-2.33,2.77-3.43,3.83-1.31l10.11,20.07c1.31,2.6,4.84,3.02,6.73.81l14.57-17.11c1.54-1.81,4.41.02,3.42,2.18l-9.39,20.42c-1.21,2.64.66,5.67,3.56,5.76l22.46.73c2.37.08,2.73,3.46.42,4.03l-21.82,5.39c-2.82.7-4.02,4.05-2.28,6.38l13.44,18.02c1.42,1.9-1,4.29-2.89,2.84l-17.82-13.69c-2.31-1.77-5.67-.62-6.41,2.19l-5.71,21.74c-.6,2.3-3.98,1.89-4.02-.48Z"/>
      <path class="cls-16" d="M1826.13,1857.21l-.19-10.84c-.03-1.4-1.47-2.33-2.75-1.76l-9.91,4.38c-1.05.46-1.91-.93-1.03-1.66l8.35-6.91c1.08-.89.9-2.6-.34-3.25l-9.61-5.02c-1.02-.53-.46-2.08.66-1.84l10.61,2.22c1.37.29,2.59-.92,2.33-2.29l-2.07-10.64c-.22-1.13,1.33-1.66,1.85-.63l4.88,9.68c.63,1.25,2.33,1.46,3.24.39l7.03-8.25c.74-.87,2.13.01,1.65,1.05l-4.53,9.85c-.59,1.27.32,2.73,1.72,2.78l10.83.35c1.15.04,1.32,1.67.2,1.94l-10.52,2.6c-1.36.34-1.94,1.95-1.1,3.08l6.48,8.69c.69.92-.48,2.07-1.39,1.37l-8.59-6.61c-1.11-.85-2.74-.3-3.09,1.06l-2.75,10.48c-.29,1.11-1.92.91-1.94-.23Z"/>
      <path class="cls-16" d="M1342.1,1656.43l-.19-10.84c-.03-1.4-1.47-2.33-2.75-1.76l-9.91,4.38c-1.05.46-1.91-.93-1.03-1.66l8.35-6.91c1.08-.89.9-2.6-.34-3.25l-9.61-5.02c-1.02-.53-.46-2.08.66-1.84l10.61,2.22c1.37.29,2.59-.92,2.33-2.29l-2.07-10.64c-.22-1.13,1.33-1.66,1.85-.63l4.88,9.68c.63,1.25,2.33,1.46,3.24.39l7.03-8.25c.74-.87,2.13.01,1.65,1.05l-4.53,9.85c-.59,1.27.32,2.73,1.72,2.78l10.83.35c1.15.04,1.32,1.67.2,1.94l-10.52,2.6c-1.36.34-1.94,1.95-1.1,3.08l6.48,8.69c.69.92-.48,2.07-1.39,1.37l-8.59-6.61c-1.11-.85-2.74-.3-3.09,1.06l-2.75,10.48c-.29,1.11-1.92.91-1.94-.23Z"/>
      <path class="cls-16" d="M1387.67,1605.64l-.09-5.02c-.01-.65-.68-1.08-1.28-.81l-4.59,2.03c-.49.21-.88-.43-.48-.77l3.87-3.2c.5-.41.42-1.2-.16-1.5l-4.45-2.32c-.47-.25-.21-.96.31-.85l4.91,1.03c.64.13,1.2-.42,1.08-1.06l-.96-4.93c-.1-.52.62-.77.86-.29l2.26,4.48c.29.58,1.08.67,1.5.18l3.26-3.82c.34-.4.98,0,.76.49l-2.1,4.56c-.27.59.15,1.27.8,1.29l5.02.16c.53.02.61.77.09.9l-4.87,1.2c-.63.16-.9.9-.51,1.42l3,4.02c.32.43-.22.96-.64.64l-3.98-3.06c-.51-.4-1.27-.14-1.43.49l-1.27,4.85c-.13.51-.89.42-.9-.11Z"/>
    </g>
  </g>
</svg>