<?xml version="1.0" encoding="UTF-8"?>
<svg id="Layer_2" data-name="Layer 2" xmlns="http://www.w3.org/2000/svg" xmlns:xlink="http://www.w3.org/1999/xlink" viewBox="0 0 1778.89 630.14">
  <defs>
    <style>
      .cls-1 {
        fill: url(#linear-gradient-2);
      }

      .cls-2 {
        fill: #d2ded4;
      }

      .cls-3 {
        fill: #e2c6bf;
        stroke: #f4997d;
        stroke-width: 21.54px;
      }

      .cls-3, .cls-4 {
        stroke-miterlimit: 10;
      }

      .cls-5 {
        fill: url(#linear-gradient-4);
      }

      .cls-6 {
        fill: url(#linear-gradient-3);
      }

      .cls-7 {
        font-size: 60px;
      }

      .cls-7, .cls-8 {
        fill: #3d2b29;
        font-family: Poppins-Medium, Poppins;
        font-weight: 500;
      }

      .cls-8 {
        font-size: 21px;
      }

      .cls-9 {
        fill: #fbf1e6;
      }

      .cls-4 {
        fill: none;
        stroke: #6d605f;
        stroke-linecap: round;
        stroke-width: 5.52px;
      }

      .cls-10 {
        fill: #6d605f;
      }

      .cls-11 {
        fill: url(#linear-gradient);
      }

      .cls-12 {
        fill: #f4997d;
      }
    </style>
    <linearGradient id="linear-gradient" x1="206.79" y1="421.59" x2="272.89" y2="536.07" gradientTransform="translate(1493.32) rotate(-180) scale(1 -1)" gradientUnits="userSpaceOnUse">
      <stop offset="0" stop-color="#fbefe3"/>
      <stop offset=".54" stop-color="#f9ede1"/>
      <stop offset=".73" stop-color="#f5e6db"/>
      <stop offset=".87" stop-color="#eedad1"/>
      <stop offset=".98" stop-color="#e4c9c2"/>
      <stop offset="1" stop-color="#e2c6bf"/>
    </linearGradient>
    <linearGradient id="linear-gradient-2" x1="259.89" y1="239.71" x2="259.89" y2="462.56" xlink:href="#linear-gradient"/>
    <linearGradient id="linear-gradient-3" x1="899.1" y1="355.93" x2="1029.37" y2="355.93" gradientTransform="translate(878.57 -572.41) rotate(47.76)" gradientUnits="userSpaceOnUse">
      <stop offset="0" stop-color="#f4997d"/>
      <stop offset=".34" stop-color="#f47a7d"/>
      <stop offset=".6" stop-color="#f4987d"/>
      <stop offset="1" stop-color="#f47a7d"/>
    </linearGradient>
    <linearGradient id="linear-gradient-4" x1="605.77" y1="701" x2="705.33" y2="701" gradientTransform="translate(868.53 -572.41) rotate(132.24) scale(1 -1)" xlink:href="#linear-gradient-3"/>
  </defs>
  <g id="banner">
    <rect class="cls-2" width="1778.89" height="630.14"/>
    <g>
      <g>
        <path class="cls-11" d="M1216.07,504.83l2.04-30.8c-.6-7.13-1.01-30.18,16.07-48.47l70.47,6.5-19.27,51.7-.83-.09-4.22,29.65v8.66s-20.18,12.34-28.28,8.83c-20.11-8.72,4.59-8.95,7.71-21.84l-1.67-29.18c-.96-2.7-3.3-4.7-6.11-5.15-.41-.07-.83-.09-1.24-.09-5.91,1.47-13.52,7.89-14.41,30.94v14.24s-20.18,12.34-28.28,8.83c-21.05-9.13,7.03-8.94,8.01-23.73Z"/>
        <g>
          <path class="cls-1" d="M1126.65,462.56l48.35-222.85s53.43,101.93,165.21,115.79c-5.39,35.55-11.84,71.1-18.56,106.65-23.04-2.47-148-14.88-195,.4Z"/>
          <path class="cls-12" d="M1346.42,356.24c67.89,18.22,46.79,124.53-21.1,106.31,0,0-1.29-.15-3.68-.4,6.72-35.55,13.17-71.1,18.56-106.65,2.07.26,4.11.55,6.22.74Z"/>
        </g>
        <path class="cls-3" d="M1084.17,307.18c-22.39,72.26-13.58,159.72,28.55,166.68,42.13,6.97,78.63-73,80.69-148.62,1.51-55.11-16.59-93.06-40.08-96.94-23.49-3.89-52.84,26.21-69.16,78.88Z"/>
        <circle class="cls-10" cx="1193.34" cy="337.58" r="9"/>
        <circle class="cls-10" cx="1077.34" cy="316.58" r="9"/>
        <path class="cls-4" d="M1132.85,326.15c-5.48,3.61-9.68,2.48-12.61-3.39"/>
      </g>
      <g>
        <path class="cls-10" d="M1166.37,410.93c-2.62-2.88-3.46-7.05-1.87-9.33l72.09-103.54c2.6-3.74,7.51-3.77,10.92-.01s3.96,9.79,1.26,13.43l-74.69,100.68c-1.65,2.22-5.09,1.66-7.71-1.22Z"/>
        <path class="cls-6" d="M1250.33,304.44c11.69,40.18,32.76,69.14,71.06,85.52,1.98.85,3.34,2.89,3.18,4.95-2.24,30.14-30.54,47.45-57.52,52.23-13.13-30.25-36.03-54.99-65.44-74.24l48.71-68.45Z"/>
      </g>
      <g>
        <path class="cls-10" d="M1070.38,410.93c2.62-2.88,1.98-7.21-1.41-9.66l-112.65-81.25c-2.98-2.15-7.36-1.7-9.8.98s-2.02,6.61.94,8.78l112.07,81.9c3.37,2.47,8.24,2.14,10.86-.75Z"/>
        <path class="cls-5" d="M945,325.33c-4.49,27.89-19.5,49.5-50.5,61.53-1.54.6-2.48,2.09-2.2,3.62,4.31,23.58,32.11,40.61,60.68,47.88,8.15-27.25,27.7-48.24,56.42-64.71l-64.4-48.32Z"/>
      </g>
    </g>
    <text class="cls-7" transform="translate(299.55 325.14)"><tspan x="0" y="0">Track Your Progress</tspan></text>
    <text class="cls-8" transform="translate(299.55 383.61)"><tspan x="0" y="0">Stay motivated with daily &amp; weekly accuracy </tspan><tspan x="0" y="25.2">reports, real-time feedback, and consistency </tspan><tspan x="0" y="50.4">tracking to keep you on track! </tspan></text>
    <path class="cls-9" d="M1322.34,236.82l.29,19.78,19.74,1.3c4.02.27,4.76,5.87.95,7.17l-18.72,6.39,4.86,19.17c.99,3.91-4.11,6.34-6.53,3.12l-11.86-15.83-16.73,10.54c-3.41,2.15-7.3-1.95-4.98-5.24l11.39-16.17-15.2-12.66c-3.1-2.58-.4-7.55,3.45-6.36l18.9,5.84,7.34-18.37c1.5-3.74,7.05-2.72,7.11,1.31Z"/>
    <path class="cls-9" d="M977.87,247.15l10.31,16.88,17.65-8.92c3.6-1.82,7.09,2.63,4.46,5.69l-12.86,15.02,13.94,14.03c2.84,2.86-.31,7.55-4.03,6l-18.26-7.59-9.04,17.59c-1.84,3.59-7.28,2.04-6.96-1.98l1.58-19.72-19.52-3.16c-3.98-.64-4.19-6.29-.27-7.23l19.24-4.59-3.03-19.55c-.62-3.98,4.69-5.93,6.79-2.49Z"/>
    <path class="cls-9" d="M1041.99,270.95l3.61,5.51,6.53-.81c1.41-.17,2.09,1.68.9,2.46l-5.51,3.61.81,6.53c.17,1.41-1.68,2.09-2.46.9l-3.61-5.51-6.53.81c-1.41.17-2.09-1.68-.9-2.46l5.51-3.61-.81-6.53c-.17-1.41,1.68-2.09,2.46-.9Z"/>
    <path class="cls-9" d="M1362.6,313.67l3.61,5.51,6.53-.81c1.41-.17,2.09,1.68.9,2.46l-5.51,3.61.81,6.53c.17,1.41-1.68,2.09-2.46.9l-3.61-5.51-6.53.81c-1.41.17-2.09-1.68-.9-2.46l5.51-3.61-.81-6.53c-.17-1.41,1.68-2.09,2.46-.9Z"/>
  </g>
</svg>