<svg width="1077" height="349" viewBox="0 0 1077 349" fill="none" xmlns="http://www.w3.org/2000/svg">
<rect width="1077" height="349" fill="#D2DED4"/>
<path d="M72.008 129.728L65.42 155H57.968L53.936 138.368L49.76 155H42.308L35.9 129.728H42.488L46.124 148.124L50.624 129.728H57.392L61.712 148.124L65.384 129.728H72.008ZM94.0313 144.632C94.0313 145.208 93.9953 145.808 93.9233 146.432H79.9913C80.0873 147.68 80.4833 148.64 81.1793 149.312C81.8993 149.96 82.7753 150.284 83.8073 150.284C85.3433 150.284 86.4113 149.636 87.0113 148.34H93.5633C93.2273 149.66 92.6153 150.848 91.7273 151.904C90.8633 152.96 89.7713 153.788 88.4513 154.388C87.1313 154.988 85.6553 155.288 84.0233 155.288C82.0553 155.288 80.3033 154.868 78.7673 154.028C77.2313 153.188 76.0313 151.988 75.1673 150.428C74.3033 148.868 73.8713 147.044 73.8713 144.956C73.8713 142.868 74.2913 141.044 75.1313 139.484C75.9953 137.924 77.1953 136.724 78.7313 135.884C80.2673 135.044 82.0313 134.624 84.0233 134.624C85.9673 134.624 87.6953 135.032 89.2073 135.848C90.7193 136.664 91.8953 137.828 92.7353 139.34C93.5993 140.852 94.0313 142.616 94.0313 144.632ZM87.7313 143.012C87.7313 141.956 87.3713 141.116 86.6513 140.492C85.9313 139.868 85.0313 139.556 83.9513 139.556C82.9193 139.556 82.0433 139.856 81.3233 140.456C80.6273 141.056 80.1953 141.908 80.0273 143.012H87.7313ZM103.435 128.36V155H97.2789V128.36H103.435ZM106.672 144.956C106.672 142.868 107.092 141.044 107.932 139.484C108.796 137.924 109.984 136.724 111.496 135.884C113.032 135.044 114.784 134.624 116.752 134.624C119.272 134.624 121.372 135.284 123.052 136.604C124.756 137.924 125.872 139.784 126.4 142.184H119.848C119.296 140.648 118.228 139.88 116.644 139.88C115.516 139.88 114.616 140.324 113.944 141.212C113.272 142.076 112.936 143.324 112.936 144.956C112.936 146.588 113.272 147.848 113.944 148.736C114.616 149.6 115.516 150.032 116.644 150.032C118.228 150.032 119.296 149.264 119.848 147.728H126.4C125.872 150.08 124.756 151.928 123.052 153.272C121.348 154.616 119.248 155.288 116.752 155.288C114.784 155.288 113.032 154.868 111.496 154.028C109.984 153.188 108.796 151.988 107.932 150.428C107.092 148.868 106.672 147.044 106.672 144.956ZM138.837 155.288C136.869 155.288 135.093 154.868 133.509 154.028C131.949 153.188 130.713 151.988 129.801 150.428C128.913 148.868 128.469 147.044 128.469 144.956C128.469 142.892 128.925 141.08 129.837 139.52C130.749 137.936 131.997 136.724 133.581 135.884C135.165 135.044 136.941 134.624 138.909 134.624C140.877 134.624 142.653 135.044 144.237 135.884C145.821 136.724 147.069 137.936 147.981 139.52C148.893 141.08 149.349 142.892 149.349 144.956C149.349 147.02 148.881 148.844 147.945 150.428C147.033 151.988 145.773 153.188 144.165 154.028C142.581 154.868 140.805 155.288 138.837 155.288ZM138.837 149.96C140.013 149.96 141.009 149.528 141.825 148.664C142.665 147.8 143.085 146.564 143.085 144.956C143.085 143.348 142.677 142.112 141.861 141.248C141.069 140.384 140.085 139.952 138.909 139.952C137.709 139.952 136.713 140.384 135.921 141.248C135.129 142.088 134.733 143.324 134.733 144.956C134.733 146.564 135.117 147.8 135.885 148.664C136.677 149.528 137.661 149.96 138.837 149.96ZM178.247 134.696C180.743 134.696 182.723 135.452 184.187 136.964C185.675 138.476 186.419 140.576 186.419 143.264V155H180.299V144.092C180.299 142.796 179.951 141.8 179.255 141.104C178.583 140.384 177.647 140.024 176.447 140.024C175.247 140.024 174.299 140.384 173.603 141.104C172.931 141.8 172.595 142.796 172.595 144.092V155H166.475V144.092C166.475 142.796 166.127 141.8 165.431 141.104C164.759 140.384 163.823 140.024 162.623 140.024C161.423 140.024 160.475 140.384 159.779 141.104C159.107 141.8 158.771 142.796 158.771 144.092V155H152.615V134.912H158.771V137.432C159.395 136.592 160.211 135.932 161.219 135.452C162.227 134.948 163.367 134.696 164.639 134.696C166.151 134.696 167.495 135.02 168.671 135.668C169.871 136.316 170.807 137.24 171.479 138.44C172.175 137.336 173.123 136.436 174.323 135.74C175.523 135.044 176.831 134.696 178.247 134.696ZM209.66 144.632C209.66 145.208 209.624 145.808 209.552 146.432H195.62C195.716 147.68 196.112 148.64 196.808 149.312C197.528 149.96 198.404 150.284 199.436 150.284C200.972 150.284 202.04 149.636 202.64 148.34H209.192C208.856 149.66 208.244 150.848 207.356 151.904C206.492 152.96 205.4 153.788 204.08 154.388C202.76 154.988 201.284 155.288 199.652 155.288C197.684 155.288 195.932 154.868 194.396 154.028C192.86 153.188 191.66 151.988 190.796 150.428C189.932 148.868 189.5 147.044 189.5 144.956C189.5 142.868 189.92 141.044 190.76 139.484C191.624 137.924 192.824 136.724 194.36 135.884C195.896 135.044 197.66 134.624 199.652 134.624C201.596 134.624 203.324 135.032 204.836 135.848C206.348 136.664 207.524 137.828 208.364 139.34C209.228 140.852 209.66 142.616 209.66 144.632ZM203.36 143.012C203.36 141.956 203 141.116 202.28 140.492C201.56 139.868 200.66 139.556 199.58 139.556C198.548 139.556 197.672 139.856 196.952 140.456C196.256 141.056 195.824 141.908 195.656 143.012H203.36Z" fill="#0C0C0C"/>
<path d="M47.144 202.272V204.048H42.584V219H40.4V204.048H35.816V202.272H47.144ZM52.0164 207.984C52.4004 207.232 52.9444 206.648 53.6484 206.232C54.3684 205.816 55.2404 205.608 56.2644 205.608V207.864H55.6884C53.2404 207.864 52.0164 209.192 52.0164 211.848V219H49.8324V205.848H52.0164V207.984ZM57.9695 212.376C57.9695 211.032 58.2415 209.856 58.7855 208.848C59.3295 207.824 60.0735 207.032 61.0175 206.472C61.9775 205.912 63.0415 205.632 64.2095 205.632C65.3615 205.632 66.3615 205.88 67.2095 206.376C68.0575 206.872 68.6895 207.496 69.1055 208.248V205.848H71.3135V219H69.1055V216.552C68.6735 217.32 68.0255 217.96 67.1615 218.472C66.3135 218.968 65.3215 219.216 64.1855 219.216C63.0175 219.216 61.9615 218.928 61.0175 218.352C60.0735 217.776 59.3295 216.968 58.7855 215.928C58.2415 214.888 57.9695 213.704 57.9695 212.376ZM69.1055 212.4C69.1055 211.408 68.9055 210.544 68.5055 209.808C68.1055 209.072 67.5615 208.512 66.8735 208.128C66.2015 207.728 65.4575 207.528 64.6415 207.528C63.8255 207.528 63.0815 207.72 62.4095 208.104C61.7375 208.488 61.2015 209.048 60.8015 209.784C60.4015 210.52 60.2015 211.384 60.2015 212.376C60.2015 213.384 60.4015 214.264 60.8015 215.016C61.2015 215.752 61.7375 216.32 62.4095 216.72C63.0815 217.104 63.8255 217.296 64.6415 217.296C65.4575 217.296 66.2015 217.104 66.8735 216.72C67.5615 216.32 68.1055 215.752 68.5055 215.016C68.9055 214.264 69.1055 213.392 69.1055 212.4ZM74.1883 212.4C74.1883 211.04 74.4603 209.856 75.0043 208.848C75.5483 207.824 76.3003 207.032 77.2603 206.472C78.2363 205.912 79.3483 205.632 80.5963 205.632C82.2123 205.632 83.5403 206.024 84.5803 206.808C85.6363 207.592 86.3323 208.68 86.6683 210.072H84.3163C84.0923 209.272 83.6523 208.64 82.9963 208.176C82.3563 207.712 81.5563 207.48 80.5963 207.48C79.3483 207.48 78.3403 207.912 77.5723 208.776C76.8043 209.624 76.4203 210.832 76.4203 212.4C76.4203 213.984 76.8043 215.208 77.5723 216.072C78.3403 216.936 79.3483 217.368 80.5963 217.368C81.5563 217.368 82.3563 217.144 82.9963 216.696C83.6363 216.248 84.0763 215.608 84.3163 214.776H86.6683C86.3163 216.12 85.6123 217.2 84.5563 218.016C83.5003 218.816 82.1803 219.216 80.5963 219.216C79.3483 219.216 78.2363 218.936 77.2603 218.376C76.3003 217.816 75.5483 217.024 75.0043 216C74.4603 214.976 74.1883 213.776 74.1883 212.4ZM96.9264 219L91.7664 213.192V219H89.5824V201.24H91.7664V211.68L96.8304 205.848H99.8784L93.6864 212.4L99.9024 219H96.9264ZM119.66 205.848L111.74 225.192H109.484L112.076 218.856L106.772 205.848H109.196L113.324 216.504L117.404 205.848H119.66ZM127.592 219.216C126.36 219.216 125.24 218.936 124.232 218.376C123.24 217.816 122.456 217.024 121.88 216C121.32 214.96 121.04 213.76 121.04 212.4C121.04 211.056 121.328 209.872 121.904 208.848C122.496 207.808 123.296 207.016 124.304 206.472C125.312 205.912 126.44 205.632 127.688 205.632C128.936 205.632 130.064 205.912 131.072 206.472C132.08 207.016 132.872 207.8 133.448 208.824C134.04 209.848 134.336 211.04 134.336 212.4C134.336 213.76 134.032 214.96 133.424 216C132.832 217.024 132.024 217.816 131 218.376C129.976 218.936 128.84 219.216 127.592 219.216ZM127.592 217.296C128.376 217.296 129.112 217.112 129.8 216.744C130.488 216.376 131.04 215.824 131.456 215.088C131.888 214.352 132.104 213.456 132.104 212.4C132.104 211.344 131.896 210.448 131.48 209.712C131.064 208.976 130.52 208.432 129.848 208.08C129.176 207.712 128.448 207.528 127.664 207.528C126.864 207.528 126.128 207.712 125.456 208.08C124.8 208.432 124.272 208.976 123.872 209.712C123.472 210.448 123.272 211.344 123.272 212.4C123.272 213.472 123.464 214.376 123.848 215.112C124.248 215.848 124.776 216.4 125.432 216.768C126.088 217.12 126.808 217.296 127.592 217.296ZM148.871 205.848V219H146.687V217.056C146.271 217.728 145.687 218.256 144.935 218.64C144.199 219.008 143.383 219.192 142.487 219.192C141.463 219.192 140.543 218.984 139.727 218.568C138.911 218.136 138.263 217.496 137.783 216.648C137.319 215.8 137.087 214.768 137.087 213.552V205.848H139.247V213.264C139.247 214.56 139.575 215.56 140.231 216.264C140.887 216.952 141.783 217.296 142.919 217.296C144.087 217.296 145.007 216.936 145.679 216.216C146.351 215.496 146.687 214.448 146.687 213.072V205.848H148.871ZM154.743 207.984C155.127 207.232 155.671 206.648 156.375 206.232C157.095 205.816 157.967 205.608 158.991 205.608V207.864H158.415C155.967 207.864 154.743 209.192 154.743 211.848V219H152.559V205.848H154.743V207.984ZM170.095 208.272C170.527 207.52 171.167 206.896 172.015 206.4C172.879 205.888 173.879 205.632 175.015 205.632C176.183 205.632 177.239 205.912 178.182 206.472C179.142 207.032 179.895 207.824 180.439 208.848C180.983 209.856 181.255 211.032 181.255 212.376C181.255 213.704 180.983 214.888 180.439 215.928C179.895 216.968 179.142 217.776 178.182 218.352C177.239 218.928 176.183 219.216 175.015 219.216C173.895 219.216 172.903 218.968 172.039 218.472C171.191 217.96 170.543 217.328 170.095 216.576V225.24H167.911V205.848H170.095V208.272ZM179.023 212.376C179.023 211.384 178.823 210.52 178.423 209.784C178.023 209.048 177.479 208.488 176.791 208.104C176.119 207.72 175.375 207.528 174.559 207.528C173.759 207.528 173.015 207.728 172.327 208.128C171.655 208.512 171.111 209.08 170.695 209.832C170.295 210.568 170.095 211.424 170.095 212.4C170.095 213.392 170.295 214.264 170.695 215.016C171.111 215.752 171.655 216.32 172.327 216.72C173.015 217.104 173.759 217.296 174.559 217.296C175.375 217.296 176.119 217.104 176.791 216.72C177.479 216.32 178.023 215.752 178.423 215.016C178.823 214.264 179.023 213.384 179.023 212.376ZM186.313 207.984C186.697 207.232 187.241 206.648 187.945 206.232C188.665 205.816 189.537 205.608 190.561 205.608V207.864H189.985C187.537 207.864 186.313 209.192 186.313 211.848V219H184.129V205.848H186.313V207.984ZM198.818 219.216C197.586 219.216 196.466 218.936 195.458 218.376C194.466 217.816 193.682 217.024 193.106 216C192.546 214.96 192.266 213.76 192.266 212.4C192.266 211.056 192.554 209.872 193.13 208.848C193.722 207.808 194.522 207.016 195.53 206.472C196.538 205.912 197.666 205.632 198.914 205.632C200.162 205.632 201.29 205.912 202.298 206.472C203.306 207.016 204.098 207.8 204.674 208.824C205.266 209.848 205.562 211.04 205.562 212.4C205.562 213.76 205.258 214.96 204.65 216C204.058 217.024 203.25 217.816 202.226 218.376C201.202 218.936 200.066 219.216 198.818 219.216ZM198.818 217.296C199.602 217.296 200.338 217.112 201.026 216.744C201.714 216.376 202.266 215.824 202.682 215.088C203.114 214.352 203.33 213.456 203.33 212.4C203.33 211.344 203.122 210.448 202.706 209.712C202.29 208.976 201.746 208.432 201.074 208.08C200.402 207.712 199.674 207.528 198.89 207.528C198.09 207.528 197.354 207.712 196.682 208.08C196.026 208.432 195.498 208.976 195.098 209.712C194.698 210.448 194.498 211.344 194.498 212.4C194.498 213.472 194.69 214.376 195.074 215.112C195.474 215.848 196.002 216.4 196.658 216.768C197.314 217.12 198.034 217.296 198.818 217.296ZM213.858 205.632C214.994 205.632 215.986 205.88 216.834 206.376C217.698 206.872 218.338 207.496 218.754 208.248V205.848H220.962V219.288C220.962 220.488 220.706 221.552 220.194 222.48C219.682 223.424 218.946 224.16 217.986 224.688C217.042 225.216 215.938 225.48 214.674 225.48C212.946 225.48 211.506 225.072 210.354 224.256C209.202 223.44 208.522 222.328 208.314 220.92H210.474C210.714 221.72 211.21 222.36 211.962 222.84C212.714 223.336 213.618 223.584 214.674 223.584C215.874 223.584 216.85 223.208 217.602 222.456C218.37 221.704 218.754 220.648 218.754 219.288V216.528C218.322 217.296 217.682 217.936 216.834 218.448C215.986 218.96 214.994 219.216 213.858 219.216C212.69 219.216 211.626 218.928 210.666 218.352C209.722 217.776 208.978 216.968 208.434 215.928C207.89 214.888 207.618 213.704 207.618 212.376C207.618 211.032 207.89 209.856 208.434 208.848C208.978 207.824 209.722 207.032 210.666 206.472C211.626 205.912 212.69 205.632 213.858 205.632ZM218.754 212.4C218.754 211.408 218.554 210.544 218.154 209.808C217.754 209.072 217.21 208.512 216.522 208.128C215.85 207.728 215.106 207.528 214.29 207.528C213.474 207.528 212.73 207.72 212.058 208.104C211.386 208.488 210.85 209.048 210.45 209.784C210.05 210.52 209.85 211.384 209.85 212.376C209.85 213.384 210.05 214.264 210.45 215.016C210.85 215.752 211.386 216.32 212.058 216.72C212.73 217.104 213.474 217.296 214.29 217.296C215.106 217.296 215.85 217.104 216.522 216.72C217.21 216.32 217.754 215.752 218.154 215.016C218.554 214.264 218.754 213.392 218.754 212.4ZM226.837 207.984C227.221 207.232 227.765 206.648 228.469 206.232C229.189 205.816 230.061 205.608 231.085 205.608V207.864H230.509C228.061 207.864 226.837 209.192 226.837 211.848V219H224.653V205.848H226.837V207.984ZM245.606 211.92C245.606 212.336 245.582 212.776 245.534 213.24H235.022C235.102 214.536 235.542 215.552 236.342 216.288C237.158 217.008 238.142 217.368 239.294 217.368C240.238 217.368 241.022 217.152 241.646 216.72C242.286 216.272 242.734 215.68 242.99 214.944H245.342C244.99 216.208 244.286 217.24 243.23 218.04C242.174 218.824 240.862 219.216 239.294 219.216C238.046 219.216 236.926 218.936 235.934 218.376C234.958 217.816 234.19 217.024 233.63 216C233.07 214.96 232.79 213.76 232.79 212.4C232.79 211.04 233.062 209.848 233.606 208.824C234.15 207.8 234.91 207.016 235.886 206.472C236.878 205.912 238.014 205.632 239.294 205.632C240.542 205.632 241.646 205.904 242.606 206.448C243.566 206.992 244.302 207.744 244.814 208.704C245.342 209.648 245.606 210.72 245.606 211.92ZM243.35 211.464C243.35 210.632 243.166 209.92 242.798 209.328C242.43 208.72 241.926 208.264 241.286 207.96C240.662 207.64 239.966 207.48 239.198 207.48C238.094 207.48 237.15 207.832 236.366 208.536C235.598 209.24 235.158 210.216 235.046 211.464H243.35ZM253.145 219.216C252.137 219.216 251.233 219.048 250.433 218.712C249.633 218.36 249.001 217.88 248.537 217.272C248.073 216.648 247.817 215.936 247.769 215.136H250.025C250.089 215.792 250.393 216.328 250.937 216.744C251.497 217.16 252.225 217.368 253.121 217.368C253.953 217.368 254.609 217.184 255.089 216.816C255.569 216.448 255.809 215.984 255.809 215.424C255.809 214.848 255.553 214.424 255.041 214.152C254.529 213.864 253.737 213.584 252.665 213.312C251.689 213.056 250.889 212.8 250.265 212.544C249.657 212.272 249.129 211.88 248.681 211.368C248.249 210.84 248.033 210.152 248.033 209.304C248.033 208.632 248.233 208.016 248.633 207.456C249.033 206.896 249.601 206.456 250.337 206.136C251.073 205.8 251.913 205.632 252.857 205.632C254.313 205.632 255.489 206 256.385 206.736C257.281 207.472 257.761 208.48 257.825 209.76H255.641C255.593 209.072 255.313 208.52 254.801 208.104C254.305 207.688 253.633 207.48 252.785 207.48C252.001 207.48 251.377 207.648 250.913 207.984C250.449 208.32 250.217 208.76 250.217 209.304C250.217 209.736 250.353 210.096 250.625 210.384C250.913 210.656 251.265 210.88 251.681 211.056C252.113 211.216 252.705 211.4 253.457 211.608C254.401 211.864 255.169 212.12 255.761 212.376C256.353 212.616 256.857 212.984 257.273 213.48C257.705 213.976 257.929 214.624 257.945 215.424C257.945 216.144 257.745 216.792 257.345 217.368C256.945 217.944 256.377 218.4 255.641 218.736C254.921 219.056 254.089 219.216 253.145 219.216ZM265.684 219.216C264.676 219.216 263.772 219.048 262.972 218.712C262.172 218.36 261.54 217.88 261.076 217.272C260.612 216.648 260.356 215.936 260.308 215.136H262.564C262.628 215.792 262.932 216.328 263.476 216.744C264.036 217.16 264.764 217.368 265.66 217.368C266.492 217.368 267.148 217.184 267.628 216.816C268.108 216.448 268.348 215.984 268.348 215.424C268.348 214.848 268.092 214.424 267.58 214.152C267.068 213.864 266.276 213.584 265.204 213.312C264.228 213.056 263.428 212.8 262.804 212.544C262.196 212.272 261.668 211.88 261.22 211.368C260.788 210.84 260.572 210.152 260.572 209.304C260.572 208.632 260.772 208.016 261.172 207.456C261.572 206.896 262.14 206.456 262.876 206.136C263.612 205.8 264.452 205.632 265.396 205.632C266.852 205.632 268.028 206 268.924 206.736C269.82 207.472 270.3 208.48 270.364 209.76H268.18C268.132 209.072 267.852 208.52 267.34 208.104C266.844 207.688 266.172 207.48 265.324 207.48C264.54 207.48 263.916 207.648 263.452 207.984C262.988 208.32 262.756 208.76 262.756 209.304C262.756 209.736 262.892 210.096 263.164 210.384C263.452 210.656 263.804 210.88 264.22 211.056C264.652 211.216 265.244 211.4 265.996 211.608C266.94 211.864 267.708 212.12 268.3 212.376C268.892 212.616 269.396 212.984 269.812 213.48C270.244 213.976 270.468 214.624 270.484 215.424C270.484 216.144 270.284 216.792 269.884 217.368C269.484 217.944 268.916 218.4 268.18 218.736C267.46 219.056 266.628 219.216 265.684 219.216ZM276.399 202.272L276.135 214.272H274.311L274.047 202.272H276.399ZM275.319 219.144C274.903 219.144 274.551 219 274.263 218.712C273.975 218.424 273.831 218.072 273.831 217.656C273.831 217.24 273.975 216.888 274.263 216.6C274.551 216.312 274.903 216.168 275.319 216.168C275.719 216.168 276.055 216.312 276.327 216.6C276.615 216.888 276.759 217.24 276.759 217.656C276.759 218.072 276.615 218.424 276.327 218.712C276.055 219 275.719 219.144 275.319 219.144Z" fill="#0C0C0C"/>
</svg>
