<svg width="20" height="20" viewBox="0 0 20 20" fill="none" xmlns="http://www.w3.org/2000/svg">
<path d="M18.95 7.03729L12.9 0.987287L13.325 0.562287C13.7083 0.178954 14.1833 -0.00837925 14.75 0.000287415C15.3167 0.00895408 15.7917 0.204621 16.175 0.587287L19.4 3.81229C19.7833 4.19562 19.975 4.66662 19.975 5.22529C19.975 5.78395 19.7833 6.25462 19.4 6.63729L18.95 7.03729ZM6.625 19.4123C6.24167 19.7956 5.771 19.9873 5.213 19.9873C4.655 19.9873 4.184 19.7956 3.8 19.4123L0.575 16.1873C0.191666 15.804 0 15.3333 0 14.7753C0 14.2173 0.191666 13.7463 0.575 13.3623L0.975 12.9623L7.025 19.0123L6.625 19.4123ZM10.25 18.7123C10.05 18.9123 9.81667 19.0123 9.55 19.0123C9.28333 19.0123 9.05 18.9123 8.85 18.7123L1.275 11.1373C1.075 10.9373 0.975 10.704 0.975 10.4373C0.975 10.1706 1.075 9.93729 1.275 9.73729L2.7 8.28729C2.9 8.08729 3.13767 7.98729 3.413 7.98729C3.68833 7.98729 3.92567 8.08729 4.125 8.28729L5.7 9.86229L9.85 5.71229L8.275 4.13729C8.075 3.93729 7.975 3.70395 7.975 3.43729C7.975 3.17062 8.075 2.93729 8.275 2.73729L9.7 1.28729C9.9 1.08729 10.1377 0.987287 10.413 0.987287C10.6883 0.987287 10.9257 1.08729 11.125 1.28729L18.7 8.86229C18.9 9.06229 19 9.29995 19 9.57529C19 9.85062 18.9 10.088 18.7 10.2873L17.25 11.7123C17.05 11.9123 16.8167 12.0123 16.55 12.0123C16.2833 12.0123 16.05 11.9123 15.85 11.7123L14.275 10.1373L10.125 14.2873L11.7 15.8623C11.9 16.0623 12 16.2996 12 16.5743C12 16.849 11.9 17.0866 11.7 17.2873L10.25 18.7123Z" fill="#6E605F"/>
</svg>
