<?xml version="1.0" encoding="UTF-8"?>
<svg id="Layer_2" data-name="Layer 2" xmlns="http://www.w3.org/2000/svg" xmlns:xlink="http://www.w3.org/1999/xlink" viewBox="0 0 1778.89 630.14">
  <defs>
    <style>
      .cls-1 {
        fill: #3d2b29;
        font-family: Poppins-Medium, Poppins;
        font-size: 60px;
        font-weight: 500;
        letter-spacing: 0em;
      }

      .cls-2 {
        fill: url(#linear-gradient-2);
      }

      .cls-3 {
        fill: #ef7f65;
      }

      .cls-4 {
        stroke: #fbf1e6;
        stroke-width: 4px;
      }

      .cls-4, .cls-5, .cls-6 {
        stroke-miterlimit: 10;
      }

      .cls-4, .cls-6 {
        fill: none;
      }

      .cls-5 {
        fill: #e2c6bf;
        stroke: #f4997d;
        stroke-width: 21.54px;
      }

      .cls-7 {
        fill: #fddcb4;
      }

      .cls-8 {
        fill: #e2684b;
      }

      .cls-9 {
        fill: #fbf1e6;
      }

      .cls-6 {
        stroke: #6d605f;
        stroke-linecap: round;
        stroke-width: 5.52px;
      }

      .cls-10 {
        fill: #6d605f;
      }

      .cls-11 {
        fill: url(#linear-gradient);
      }

      .cls-12 {
        fill: #f4997d;
      }
    </style>
    <linearGradient id="linear-gradient" x1="345.49" y1="379.05" x2="411.58" y2="493.52" gradientTransform="translate(1642.26 -10.9) rotate(178.01) scale(1 -1)" gradientUnits="userSpaceOnUse">
      <stop offset="0" stop-color="#fbefe3"/>
      <stop offset=".54" stop-color="#f9ede1"/>
      <stop offset=".73" stop-color="#f5e6db"/>
      <stop offset=".87" stop-color="#eedad1"/>
      <stop offset=".98" stop-color="#e4c9c2"/>
      <stop offset="1" stop-color="#e2c6bf"/>
    </linearGradient>
    <linearGradient id="linear-gradient-2" x1="398.59" y1="197.16" x2="398.59" y2="420.01" xlink:href="#linear-gradient"/>
  </defs>
  <g id="learn">
    <g>
      <rect class="cls-7" width="1778.89" height="630.14"/>
      <text class="cls-1" transform="translate(304.42 269.56)"><tspan x="0" y="0">What would you </tspan><tspan x="0" y="72">like to learn?</tspan></text>
      <g>
        <g>
          <path class="cls-11" d="M1242.62,465.56l.97-30.85c-.85-7.1-2.06-30.13,14.38-49l70.65,4.05-17.47,52.33-.83-.06-3.18,29.78.3,8.65s-19.74,13.04-27.96,9.81c-20.4-8.02,4.28-9.1,6.94-22.09l-2.68-29.11c-1.06-2.66-3.46-4.58-6.28-4.93-.42-.05-.83-.07-1.24-.05-5.86,1.67-13.24,8.35-13.32,31.42l.49,14.23s-19.74,13.04-27.96,9.81c-21.35-8.39,6.71-9.18,7.18-23.99Z"/>
          <g>
            <path class="cls-2" d="M1151.79,426.42l40.58-224.39s56.94,100.01,169.13,109.98c-4.15,35.72-9.36,71.47-14.84,107.23-23.11-1.66-148.43-9.73-194.86,7.18Z"/>
            <path class="cls-12" d="M1367.74,312.54c68.48,15.85,51.09,122.83-17.39,106.98,0,0-1.3-.1-3.69-.28,5.48-35.76,10.69-71.52,14.84-107.23,2.07.18,4.13.41,6.24.53Z"/>
          </g>
          <path class="cls-5" d="M1103.94,272.62c-19.86,72.99-8.02,160.09,34.32,165.59,42.35,5.5,76.04-75.69,75.48-151.33-.41-55.13-19.81-92.43-43.43-95.49-23.61-3.07-51.9,28.03-66.38,81.23Z"/>
          <circle class="cls-10" cx="1214.1" cy="299.2" r="9"/>
          <circle class="cls-10" cx="1097.44" cy="282.24" r="9"/>
          <path class="cls-6" d="M1153.25,289.88c-5.35,3.8-9.59,2.82-12.72-2.95"/>
        </g>
        <g>
          <g>
            <path class="cls-3" d="M1053.95,322.25l-57.02,60.37c19.4,14.43,29.92,35.03,32.8,60.93l2.66,1.96,50-70.17-28.44-53.09Z"/>
            <polygon class="cls-8" points="1085.59 381.32 1082.38 375.33 1032.38 445.51 1042.67 453.08 1093.02 382.75 1085.59 381.32"/>
            <path class="cls-3" d="M1110.73,466.36l40.67-72.4-58.38-11.21-50.36,70.33.13.1c26.38-4.18,49.26-.33,67.93,13.18Z"/>
          </g>
          <path class="cls-9" d="M1053.95,322.25s46.96,20.61,31.64,59.07l-31.64-59.07Z"/>
          <path class="cls-9" d="M1151.4,393.96s-33.64-38.7-65.81-12.64l65.81,12.64Z"/>
        </g>
      </g>
      <path class="cls-4" d="M1010.09,239.73c-46.57-2.58-.32,70.14-.32,29.28,0-20.77-58.3,34.48-4.52,34.48"/>
      <path class="cls-9" d="M1450.33,342.68l-.4-22.47c-.05-2.91-3.05-4.82-5.71-3.65l-20.55,9.09c-2.17.96-3.96-1.93-2.13-3.45l17.32-14.32c2.24-1.85,1.87-5.39-.71-6.74l-19.92-10.4c-2.11-1.1-.96-4.3,1.37-3.82l22,4.61c2.85.6,5.38-1.9,4.82-4.75l-4.29-22.06c-.45-2.33,2.77-3.43,3.83-1.31l10.11,20.07c1.31,2.6,4.84,3.02,6.73.81l14.57-17.11c1.54-1.81,4.41.02,3.42,2.18l-9.39,20.42c-1.21,2.64.66,5.67,3.56,5.76l22.46.73c2.37.08,2.73,3.46.42,4.03l-21.82,5.39c-2.82.7-4.02,4.05-2.28,6.38l13.44,18.02c1.42,1.9-1,4.29-2.89,2.84l-17.82-13.69c-2.31-1.77-5.67-.62-6.41,2.19l-5.71,21.74c-.6,2.3-3.98,1.89-4.02-.48Z"/>
      <path class="cls-9" d="M1454.95,412.86l-.19-10.84c-.03-1.4-1.47-2.33-2.75-1.76l-9.91,4.38c-1.05.46-1.91-.93-1.03-1.66l8.35-6.91c1.08-.89.9-2.6-.34-3.25l-9.61-5.02c-1.02-.53-.46-2.08.66-1.84l10.61,2.22c1.37.29,2.59-.92,2.33-2.29l-2.07-10.64c-.22-1.13,1.33-1.66,1.85-.63l4.88,9.68c.63,1.25,2.33,1.46,3.24.39l7.03-8.25c.74-.87,2.13.01,1.65,1.05l-4.53,9.85c-.59,1.27.32,2.73,1.72,2.78l10.83.35c1.15.04,1.32,1.67.2,1.94l-10.52,2.6c-1.36.34-1.94,1.95-1.1,3.08l6.48,8.69c.69.92-.48,2.07-1.39,1.37l-8.59-6.61c-1.11-.85-2.74-.3-3.09,1.06l-2.75,10.48c-.29,1.11-1.92.91-1.94-.23Z"/>
      <path class="cls-9" d="M970.92,212.08l-.19-10.84c-.03-1.4-1.47-2.33-2.75-1.76l-9.91,4.38c-1.05.46-1.91-.93-1.03-1.66l8.35-6.91c1.08-.89.9-2.6-.34-3.25l-9.61-5.02c-1.02-.53-.46-2.08.66-1.84l10.61,2.22c1.37.29,2.59-.92,2.33-2.29l-2.07-10.64c-.22-1.13,1.33-1.66,1.85-.63l4.88,9.68c.63,1.25,2.33,1.46,3.24.39l7.03-8.25c.74-.87,2.13.01,1.65,1.05l-4.53,9.85c-.59,1.27.32,2.73,1.72,2.78l10.83.35c1.15.04,1.32,1.67.2,1.94l-10.52,2.6c-1.36.34-1.94,1.95-1.1,3.08l6.48,8.69c.69.92-.48,2.07-1.39,1.37l-8.59-6.61c-1.11-.85-2.74-.3-3.09,1.06l-2.75,10.48c-.29,1.11-1.92.91-1.94-.23Z"/>
      <path class="cls-9" d="M1016.49,161.29l-.09-5.02c-.01-.65-.68-1.08-1.28-.81l-4.59,2.03c-.49.21-.88-.43-.48-.77l3.87-3.2c.5-.41.42-1.2-.16-1.5l-4.45-2.32c-.47-.25-.21-.96.31-.85l4.91,1.03c.64.13,1.2-.42,1.08-1.06l-.96-4.93c-.1-.52.62-.77.86-.29l2.26,4.48c.29.58,1.08.67,1.5.18l3.26-3.82c.34-.4.98,0,.76.49l-2.1,4.56c-.27.59.15,1.27.8,1.29l5.02.16c.53.02.61.77.09.9l-4.87,1.2c-.63.16-.9.9-.51,1.42l3,4.02c.32.43-.22.96-.64.64l-3.98-3.06c-.51-.4-1.27-.14-1.43.49l-1.27,4.85c-.13.51-.89.42-.9-.11Z"/>
    </g>
  </g>
</svg>