<svg width="129" height="129" viewBox="0 0 129 129" fill="none" xmlns="http://www.w3.org/2000/svg">
<path d="M50.6786 59.8929C57.5202 59.8929 62.4452 66.7897 67.6605 74.0875C73.7051 82.5508 80.5605 92.1429 92.1429 92.1429C118.265 92.1429 127.986 42.4318 129 36.8571L119.933 35.2078C117.712 47.3706 107.78 82.9286 92.1429 82.9286C85.3013 82.9286 80.3762 76.0317 75.1609 68.734C69.1164 60.2706 62.2609 50.6786 50.6786 50.6786C31.3931 50.6786 16.3784 84.7899 9.21429 104.868V0H0V119.786C0.00365577 122.228 0.975617 124.57 2.70284 126.297C4.43006 128.024 6.77163 128.996 9.21429 129H129V119.786H14.0241C20.9809 96.0912 36.6913 59.8929 50.6786 59.8929Z" fill="#3D2B29"/>
</svg>
