<svg width="129" height="70" viewBox="0 0 129 70" fill="none" xmlns="http://www.w3.org/2000/svg">
<path fill-rule="evenodd" clip-rule="evenodd" d="M112.556 11.8768C104.356 6.25305 92.9048 0.454513 81.162 0.0116095C76.4649 -0.163221 72.5254 1.78905 68.5334 3.77046C67.4184 4.3338 66.2898 4.87772 65.1476 5.40221C64.2443 5.80432 63.9645 5.80432 63.0612 5.40221C61.9237 4.88103 60.7968 4.337 59.6812 3.77046C55.6892 1.78905 51.7439 -0.169048 47.0468 0.0116095C35.304 0.454513 23.8527 6.25305 15.6531 11.8768C10.2742 15.5598 0 21.4691 0 29.1383C0 37.5943 11.2882 47.2973 16.9818 52.146C27.5649 61.1672 43.422 69.932 64.1044 69.932C84.7868 69.932 100.644 61.1672 111.227 52.1576C117.148 47.105 128.209 37.9498 128.209 29.1383C128.209 21.6964 117.754 15.4433 112.556 11.8768ZM64.1044 40.7937C82.4791 40.7937 100.131 37.9381 116.553 32.6874C107.749 30.323 98.6706 29.1297 89.5539 29.1383C80.7424 29.1383 72.2049 30.2339 64.1044 32.2853C55.7841 30.1877 47.2356 29.1307 38.655 29.1383C29.2782 29.1383 20.2162 30.3796 11.6553 32.6874C28.6134 38.088 46.3072 40.8227 64.1044 40.7937Z" fill="#3D2B29"/>
</svg>
