<svg width="284" height="273" viewBox="0 0 284 273" fill="none" xmlns="http://www.w3.org/2000/svg">
<path d="M151.997 249.66L150.202 222.638C150.727 216.392 151.078 196.142 136.106 180.1L74.335 185.798L91.2332 231.163L91.9556 231.075L95.6548 257.089V264.694C95.6548 264.694 113.341 275.52 120.433 272.43C138.054 264.782 116.406 264.584 113.669 253.276L115.136 227.657C115.99 225.29 118.025 223.536 120.499 223.142C120.871 223.076 121.221 223.054 121.593 223.054C126.781 224.347 133.435 229.98 134.223 250.208V262.7C134.223 262.7 151.909 273.526 159.001 270.436C177.454 262.415 152.851 262.59 151.975 249.616L151.997 249.66Z" fill="url(#paint0_linear_47_2851)"/>
<path d="M231.301 212.403L188.508 14.9434C188.508 14.9434 141.228 105.258 42.2894 117.552C47.0612 149.045 52.7742 180.56 58.7062 212.053C79.1067 209.861 189.69 198.859 231.279 212.403H231.301Z" fill="url(#paint1_linear_47_2851)"/>
<path d="M36.7953 118.21C-23.2899 134.362 -4.61858 228.555 55.4666 212.403C55.4666 212.403 56.6049 212.272 58.7281 212.053C52.7743 180.56 47.0832 149.045 42.3114 117.552C40.4727 117.772 38.6778 118.035 36.8172 118.21H36.7953Z" fill="#F4997D"/>
<path d="M268.906 74.7292C288.715 138.767 280.923 216.26 243.646 222.419C206.369 228.599 174.061 157.724 172.222 90.7276C170.887 41.8995 186.91 8.25903 207.704 4.81827C228.499 1.37751 254.459 28.0489 268.906 74.7073V74.7292Z" fill="#E2C6BF" stroke="#F4997D" stroke-width="8.71" stroke-miterlimit="10"/>
<path d="M172.135 109.202C176.499 109.202 180.037 105.66 180.037 101.291C180.037 96.9215 176.499 93.3794 172.135 93.3794C167.771 93.3794 164.233 96.9215 164.233 101.291C164.233 105.66 167.771 109.202 172.135 109.202Z" fill="#6D605F"/>
<path d="M274.75 90.9687C279.114 90.9687 282.652 87.4266 282.652 83.0572C282.652 78.6878 279.114 75.1456 274.75 75.1456C270.386 75.1456 266.848 78.6878 266.848 83.0572C266.848 87.4266 270.386 90.9687 274.75 90.9687Z" fill="#6D605F"/>
<path d="M232.658 97.3023C237.324 97.3023 241.107 93.5149 241.107 88.8429C241.107 84.1708 237.324 80.3834 232.658 80.3834C227.992 80.3834 224.209 84.1708 224.209 88.8429C224.209 93.5149 227.992 97.3023 232.658 97.3023Z" fill="#6D605F"/>
<defs>
<linearGradient id="paint0_linear_47_2851" x1="90.2263" y1="176.615" x2="148.272" y2="277.015" gradientUnits="userSpaceOnUse">
<stop stop-color="#FBEFE3"/>
<stop offset="0.54" stop-color="#F9EDE1"/>
<stop offset="0.73" stop-color="#F5E6DB"/>
<stop offset="0.87" stop-color="#EEDAD1"/>
<stop offset="0.98" stop-color="#E4C9C2"/>
<stop offset="1" stop-color="#E2C6BF"/>
</linearGradient>
<linearGradient id="paint1_linear_47_2851" x1="136.806" y1="14.9434" x2="136.806" y2="212.403" gradientUnits="userSpaceOnUse">
<stop stop-color="#FBEFE3"/>
<stop offset="0.54" stop-color="#F9EDE1"/>
<stop offset="0.73" stop-color="#F5E6DB"/>
<stop offset="0.87" stop-color="#EEDAD1"/>
<stop offset="0.98" stop-color="#E4C9C2"/>
<stop offset="1" stop-color="#E2C6BF"/>
</linearGradient>
</defs>
</svg>
