<?xml version="1.0" encoding="UTF-8"?>
<svg id="Layer_2" data-name="Layer 2" xmlns="http://www.w3.org/2000/svg" xmlns:xlink="http://www.w3.org/1999/xlink" viewBox="0 0 132.03 126.85">
  <defs>
    <style>
      .cls-1 {
        fill: #e2c6bf;
        stroke: #f4997d;
        stroke-width: 8.71px;
      }

      .cls-1, .cls-2 {
        stroke-miterlimit: 10;
      }

      .cls-3 {
        fill: url(#linear-gradient-2);
      }

      .cls-2 {
        fill: none;
        stroke: #6d605f;
        stroke-linecap: round;
        stroke-width: 2.23px;
      }

      .cls-4 {
        fill: #6d605f;
      }

      .cls-5 {
        fill: url(#linear-gradient);
      }

      .cls-6 {
        fill: #f4997d;
      }
    </style>
    <linearGradient id="linear-gradient" x1="41.22" y1="82.87" x2="67.69" y2="128.71" gradientUnits="userSpaceOnUse">
      <stop offset="0" stop-color="#fbefe3"/>
      <stop offset=".54" stop-color="#f9ede1"/>
      <stop offset=".73" stop-color="#f5e6db"/>
      <stop offset=".87" stop-color="#eedad1"/>
      <stop offset=".98" stop-color="#e4c9c2"/>
      <stop offset="1" stop-color="#e2c6bf"/>
    </linearGradient>
    <linearGradient id="linear-gradient-2" x1="62.5" y1="9.1" x2="62.5" y2="99.2" xlink:href="#linear-gradient"/>
  </defs>
  <g id="logo">
    <g>
      <path class="cls-5" d="M69.44,116.2l-.82-12.33c.24-2.85.4-12.09-6.44-19.41l-28.22,2.6,7.72,20.7.33-.04,1.69,11.87v3.47s8.08,4.94,11.32,3.53c8.05-3.49-1.84-3.58-3.09-8.74l.67-11.69c.39-1.08,1.32-1.88,2.45-2.06.17-.03.33-.04.5-.04,2.37.59,5.41,3.16,5.77,12.39v5.7s8.08,4.94,11.32,3.53c8.43-3.66-2.81-3.58-3.21-9.5Z"/>
      <g>
        <path class="cls-3" d="M105.67,99.2L86.12,9.1s-21.6,41.21-66.8,46.82c2.18,14.37,4.79,28.75,7.5,43.12,9.32-1,59.84-6.02,78.84.16Z"/>
        <path class="cls-6" d="M16.81,56.22c-27.45,7.37-18.92,50.35,8.53,42.98,0,0,.52-.06,1.49-.16-2.72-14.37-5.32-28.75-7.5-43.12-.84.1-1.66.22-2.51.3Z"/>
      </g>
      <path class="cls-1" d="M122.85,36.38c9.05,29.22,5.49,64.58-11.54,67.39-17.03,2.82-31.79-29.52-32.63-60.09-.61-22.28,6.71-37.63,16.21-39.2,9.5-1.57,21.36,10.6,27.96,31.89Z"/>
      <circle class="cls-4" cx="78.64" cy="48.5" r="3.61"/>
      <circle class="cls-4" cx="125.52" cy="40.18" r="3.61"/>
      <path class="cls-2" d="M103.16,44.05c2.21,1.46,3.91,1,5.1-1.37"/>
    </g>
  </g>
</svg>