<svg width="20" height="20" viewBox="0 0 20 20" fill="none" xmlns="http://www.w3.org/2000/svg">
<path d="M10.95 0V2C15.34 2.54 18.45 6.53 17.91 10.92C17.6893 12.689 16.885 14.3339 15.6244 15.5944C14.3639 16.855 12.719 17.6593 10.95 17.88V19.88C16.45 19.28 20.4 14.34 19.8 8.85C19.28 4.19 15.61 0.5 10.95 0ZM8.95 0C6.99 0.18 5.14 0.95 3.62 2.2L5.05 3.74C6.17 2.84 7.52 2.26 8.95 2.06V0.0599999M2.21 3.67C0.955145 5.18463 0.185093 7.04181 0 9H2C2.19 7.58 2.75 6.23 3.64 5.1L2.21 3.67ZM0.00999999 11C0.21 12.96 0.98 14.81 2.22 16.33L3.64 14.9C2.75684 13.7696 2.19386 12.4226 2.01 11H0.00999999ZM5.01 16.37L3.62 17.74C5.13497 19.0024 6.98936 19.7887 8.95 20V18C7.52737 17.8161 6.18035 17.2532 5.05 16.37H5.01ZM6.53 14.8L7.45 10.91L4.45 8.33L8.4 7.96L9.95 4.35L11.5 8L15.45 8.33L12.45 10.91L13.37 14.8L9.95 12.74L6.53 14.8Z" fill="#6E605F"/>
</svg>
