<svg width="20" height="20" viewBox="0 0 20 20" fill="none" xmlns="http://www.w3.org/2000/svg">
<path d="M12.5781 0H7.42102L6.82942 2.94273C6.3396 3.16096 5.87384 3.42906 5.43958 3.74273L2.57761 2.78L0 7.22L2.26855 9.20182C2.21377 9.73255 2.21377 10.2675 2.26855 10.7982L0 12.78L2.57852 17.22L5.43958 16.2582C5.87117 16.5691 6.33566 16.8382 6.82942 17.0573L7.42102 20H12.5781L13.1697 17.0573C13.6595 16.839 14.1252 16.5709 14.5595 16.2573L17.4215 17.22L20 12.78L17.7305 10.7982C17.7853 10.2675 17.7853 9.73255 17.7305 9.20182L19.9991 7.22L17.4206 2.78L14.5604 3.74182C14.1261 3.42847 13.6604 3.16068 13.1706 2.94273L12.5781 0ZM9.99954 13.6364C9.02952 13.6364 8.09923 13.2532 7.41332 12.5713C6.72741 11.8893 6.34207 10.9644 6.34207 10C6.34207 9.03558 6.72741 8.11065 7.41332 7.4287C8.09923 6.74675 9.02952 6.36364 9.99954 6.36364C10.9696 6.36364 11.8999 6.74675 12.5858 7.4287C13.2717 8.11065 13.657 9.03558 13.657 10C13.657 10.9644 13.2717 11.8893 12.5858 12.5713C11.8999 13.2532 10.9696 13.6364 9.99954 13.6364Z" fill="#6E605F"/>
</svg>
