<svg width="131" height="118" viewBox="0 0 131 118" fill="none" xmlns="http://www.w3.org/2000/svg">
<path d="M47.6356 5.62165e-07C59.2035 -0.00176753 70.3767 4.16721 79.0701 11.7288C87.7634 19.2905 93.3828 29.728 94.8793 41.0935L108.277 61.9736C109.158 63.3483 108.98 65.3956 106.937 66.2688L95.2724 71.213V88.5C95.2724 91.6296 94.0176 94.6309 91.7842 96.8439C89.5508 99.0568 86.5217 100.3 83.3632 100.3H71.4599L71.454 118H17.8626V96.2054C17.8626 89.2434 15.2664 82.6531 10.4551 76.7059C4.84444 69.7647 1.32699 61.3942 0.308022 52.5586C-0.710948 43.7231 0.810015 34.7821 4.69568 26.7657C8.58135 18.7493 14.6736 11.9837 22.2706 7.24823C29.8677 2.51279 38.6603 0.000219802 47.6356 5.62165e-07ZM120.008 95.0018L110.093 88.4528C115.974 79.7365 119.106 69.4844 119.091 59C119.109 48.5142 115.979 38.26 110.099 29.5413L120.008 22.9923C127.196 33.6487 131.022 46.1828 131 59C131 72.3222 126.951 84.7004 120.008 95.0018Z" fill="#3D2B29"/>
</svg>
