<svg width="111" height="125" viewBox="0 0 111 125" fill="none" xmlns="http://www.w3.org/2000/svg">
<path d="M62.484 0C36.3547 0 15.2849 20.4861 13.968 46.25L0.660804 63.8194C-1.0026 65.9722 0.660804 69.4444 3.57176 69.4444H13.968V90.2778C13.968 97.9861 20.1365 104.167 27.8298 104.167H34.7606V125H83.2766V92.4306C99.7027 84.6528 111 68.0556 111 48.6111C111 21.8056 89.3757 0 62.484 0ZM90.6233 45.625L77.0388 49.2361L87.0193 59.3056C88.1832 60.4769 88.8366 62.0624 88.8366 63.7153C88.8366 65.3681 88.1832 66.9537 87.0193 68.125C85.8502 69.2912 84.2678 69.9459 82.6182 69.9459C80.9685 69.9459 79.3861 69.2912 78.2171 68.125L68.098 58.125L64.5633 71.7361C63.7316 75.1389 60.2661 77.0833 57.0086 76.1806C56.212 75.9791 55.4635 75.6201 54.8072 75.1248C54.1509 74.6295 53.6 74.0078 53.1868 73.2962C52.7736 72.5846 52.5064 71.7974 52.401 70.981C52.2956 70.1645 52.354 69.3352 52.5729 68.5417L56.2463 54.8611L42.5925 58.5417C41.8005 58.7639 40.972 58.8247 40.1562 58.7204C39.3403 58.6161 38.5537 58.3488 37.8427 57.9344C37.1318 57.5199 36.5112 56.9668 36.0175 56.3077C35.5238 55.6486 35.1671 54.8969 34.9685 54.0972C34.0675 50.8333 36.0082 47.3611 39.4043 46.5278L52.9888 42.9861L43.0083 32.8472C41.9656 31.654 41.4146 30.1082 41.4671 28.5231C41.5195 26.938 42.1714 25.4321 43.2906 24.3107C44.4099 23.1892 45.9128 22.536 47.4948 22.4835C49.0768 22.431 50.6196 22.983 51.8105 24.0278L61.8602 34.0278L65.4643 20.4167C65.6586 19.6362 66.0049 18.9018 66.4831 18.2557C66.9614 17.6096 67.5622 17.0644 68.2512 16.6515C68.9402 16.2386 69.7038 15.966 70.4982 15.8495C71.2925 15.7329 72.1021 15.7746 72.8803 15.9722C76.3457 16.875 78.2864 20.2778 77.4547 23.6806L73.7813 37.2917L87.3658 33.6111C88.1714 33.4029 89.0101 33.3565 89.8337 33.4744C90.6572 33.5924 91.4494 33.8725 92.1644 34.2985C92.8795 34.7245 93.5034 35.2881 94.0002 35.9567C94.497 36.6254 94.8569 37.3859 95.059 38.1944C95.2563 38.9742 95.2979 39.7853 95.1815 40.5812C95.0652 41.3772 94.7932 42.1422 94.3811 42.8326C93.969 43.5229 93.4249 44.125 92.78 44.6042C92.1352 45.0834 91.4022 45.4303 90.6233 45.625Z" fill="#3D2B29"/>
</svg>
